<?xml version="1.0" encoding="UTF-8" standalone="no"?>
<svg xmlns="http://www.w3.org/2000/svg" xmlns:xlink="http://www.w3.org/1999/xlink" width="1024" height="1024" viewBox="0 0 1024 1024" style="fill-rule:evenodd;clip-rule:evenodd;stroke-linejoin:round;stroke-miterlimit:2;">
  <rect x="100" y="100" width="824" height="824" rx="185" ry="185" style="fill:#12100e;"/>
  <g transform="translate(140.8,169.8) scale(1.45)">
    <path d="M276.509,153.85l0,-40l-80.968,0l0,88.646l-80.27,-88.646l-89.693,0l97.72,107.492l-102.606,136.808l95.277,0l61.075,-80.968l18.497,20.591l0,60.377l39.951,0l0,-204.3l41.017,0Z" style="fill:#c6c6c6;"/>
    <path d="M276.508,153.85l39.951,-0l0,88.646l80.27,-88.646l89.693,0l-97.72,107.492l102.606,136.808l-95.277,0l-61.075,-80.968l-18.497,20.591l0,60.377l-80.968,0l0,-40l41.017,0l0,-204.3Z" style="fill:#3185fc;"/>
  </g>
</svg>
